ffmpeg started on 2016-12-12 at 01:47:52
Report written to "Output/theora/results/ffmpeg/old_town_cross_2160p502000k.log"
Command line:
Tools/ffmpeg/ffmpeg -benchmark -y -i Input/y4m/old_town_cross_2160p50.y4m -c:v libtheora -b:v 2000k -an Output/theora/encoded/old_town_cross_2160p502000k.mkv
ffmpeg version N-82227-gdb23fde Copyright (c) 2000-2016 the FFmpeg developers
  built with gcc 5.4.0 (Ubuntu 5.4.0-6ubuntu1~16.04.2) 20160609
  configuration: --prefix=/home/jaroslav/ffmpeg_build --pkg-config-flags=--static --extra-cflags=-I/home/jaroslav/ffmpeg_build/include --extra-ldflags=-L/home/jaroslav/ffmpeg_build/lib --bindir=/home/jaroslav/bin --enable-gpl --enable-libass --enable-libfdk-aac --enable-libfreetype --enable-libmp3lame --enable-libopus --enable-libtheora --enable-libvorbis --enable-libvpx --enable-libx264 --enable-libx265 --enable-nvenc --enable-libmfx --enable-libxvid --enable-libgsm --enable-libopencore-amrnb --enable-version3 --enable-nonfree
  libavutil      55. 35.100 / 55. 35.100
  libavcodec     57. 66.101 / 57. 66.101
  libavformat    57. 57.100 / 57. 57.100
  libavdevice    57.  2.100 / 57.  2.100
  libavfilter     6. 66.100 /  6. 66.100
  libswscale      4.  3.100 /  4.  3.100
  libswresample   2.  4.100 /  2.  4.100
  libpostproc    54.  2.100 / 54.  2.100
Input #0, yuv4mpegpipe, from 'Input/y4m/old_town_cross_2160p50.y4m':
  Duration: 00:00:10.00, start: 0.000000, bitrate: 4976642 kb/s
    Stream #0:0: Video: rawvideo (I420 / 0x30323449), yuv420p(progressive), 3840x2160, SAR 1:1 DAR 16:9, 50 fps, 50 tbr, 50 tbn, 50 tbc
Output #0, matroska, to 'Output/theora/encoded/old_town_cross_2160p502000k.mkv':
  Metadata:
    encoder         : Lavf57.57.100
    Stream #0:0: Video: theora (libtheora) (theo / 0x6F656874), yuv420p, 3840x2160 [SAR 1:1 DAR 16:9], q=2-31, 2000 kb/s, 50 fps, 1k tbn, 50 tbc
    Metadata:
      encoder         : Lavc57.66.101 libtheora
Stream mapping:
  Stream #0:0 -> #0:0 (rawvideo (native) -> theora (libtheora))
Press [q] to stop, [?] for help
frame=    3 fps=0.0 q=-0.0 size=       4kB time=00:00:00.04 bitrate= 779.5kbits/s speed=0.0568x    frame=    5 fps=3.7 q=-0.0 size=       4kB time=00:00:00.08 bitrate= 394.6kbits/s speed=0.0596x    frame=    7 fps=3.5 q=-0.0 size=       4kB time=00:00:00.12 bitrate= 264.1kbits/s speed=0.0607x    frame=    9 fps=3.4 q=-0.0 size=       4kB time=00:00:00.16 bitrate= 198.5kbits/s speed=0.0611x    frame=   11 fps=3.4 q=-0.0 size=       4kB time=00:00:00.20 bitrate= 159.0kbits/s speed=0.0614x    frame=   13 fps=3.3 q=-0.0 size=     189kB time=00:00:00.24 bitrate=6422.5kbits/s speed=0.0615x    frame=   16 fps=3.4 q=-0.0 size=     189kB time=00:00:00.30 bitrate=5142.3kbits/s speed=0.0638x    frame=   18 fps=3.4 q=-0.0 size=     189kB time=00:00:00.34 bitrate=4539.1kbits/s speed=0.0636x    frame=   20 fps=3.3 q=-0.0 size=     189kB time=00:00:00.38 bitrate=4062.6kbits/s speed=0.0634x    frame=   22 fps=3.3 q=-0.0 size=     189kB time=00:00:00.42 bitrate=3676.6kbits/s speed=0.0633x    frame=   24 fps=3.3 q=-0.0 size=     189kB time=00:00:00.46 bitrate=3357.6kbits/s speed=0.063x    frame=   26 fps=3.3 q=-0.0 size=     354kB time=00:00:00.50 bitrate=5793.3kbits/s speed=0.064x    frame=   28 fps=3.3 q=-0.0 size=     354kB time=00:00:00.54 bitrate=5364.9kbits/s speed=0.064x    frame=   30 fps=3.3 q=-0.0 size=     354kB time=00:00:00.58 bitrate=4995.6kbits/s speed=0.0639x    frame=   32 fps=3.3 q=-0.0 size=     354kB time=00:00:00.62 bitrate=4673.8kbits/s speed=0.0638x    frame=   34 fps=3.3 q=-0.0 size=     354kB time=00:00:00.66 bitrate=4391.0kbits/s speed=0.0637x    frame=   36 fps=3.3 q=-0.0 size=     354kB time=00:00:00.70 bitrate=4140.4kbits/s speed=0.0636x    frame=   39 fps=3.2 q=-0.0 size=     426kB time=00:00:00.76 bitrate=4586.7kbits/s speed=0.0625x    frame=   41 fps=3.2 q=-0.0 size=     426kB time=00:00:00.80 bitrate=4357.6kbits/s speed=0.0626x    frame=   43 fps=3.2 q=-0.0 size=     426kB time=00:00:00.84 bitrate=4150.4kbits/s speed=0.0626x    frame=   45 fps=3.2 q=-0.0 size=     426kB time=00:00:00.88 bitrate=3961.9kbits/s speed=0.0626x    frame=   47 fps=3.2 q=-0.0 size=     426kB time=00:00:00.92 bitrate=3789.9kbits/s speed=0.0625x    frame=   49 fps=3.2 q=-0.0 size=     497kB time=00:00:00.96 bitrate=4236.7kbits/s speed=0.0625x    frame=   52 fps=3.2 q=-0.0 size=     497kB time=00:00:01.02 bitrate=3987.7kbits/s speed=0.0632x    frame=   54 fps=3.2 q=-0.0 size=     497kB time=00:00:01.06 bitrate=3837.4kbits/s speed=0.0631x    frame=   56 fps=3.2 q=-0.0 size=     497kB time=00:00:01.10 bitrate=3698.0kbits/s speed=0.0631x    frame=   58 fps=3.2 q=-0.0 size=     497kB time=00:00:01.14 bitrate=3568.3kbits/s speed=0.0631x    frame=   60 fps=3.2 q=-0.0 size=     497kB time=00:00:01.18 bitrate=3447.5kbits/s speed=0.0631x    frame=   63 fps=3.2 q=-0.0 size=     567kB time=00:00:01.24 bitrate=3746.0kbits/s speed=0.0636x    frame=   65 fps=3.2 q=-0.0 size=     567kB time=00:00:01.28 bitrate=3629.0kbits/s speed=0.0636x    frame=   67 fps=3.2 q=-0.0 size=     567kB time=00:00:01.32 bitrate=3519.2kbits/s speed=0.0636x    frame=   69 fps=3.2 q=-0.0 size=     567kB time=00:00:01.36 bitrate=3415.7kbits/s speed=0.0635x    frame=   71 fps=3.2 q=-0.0 size=     567kB time=00:00:01.40 bitrate=3318.2kbits/s speed=0.0635x    frame=   73 fps=3.2 q=-0.0 size=     639kB time=00:00:01.44 bitrate=3630.9kbits/s speed=0.0634x    frame=   76 fps=3.2 q=-0.0 size=     639kB time=00:00:01.50 bitrate=3485.8kbits/s speed=0.0638x    frame=   78 fps=3.2 q=-0.0 size=     639kB time=00:00:01.54 bitrate=3395.3kbits/s speed=0.0638x    frame=   80 fps=3.2 q=-0.0 size=     639kB time=00:00:01.58 bitrate=3309.4kbits/s speed=0.0638x    frame=   82 fps=3.2 q=-0.0 size=     639kB time=00:00:01.62 bitrate=3227.7kbits/s speed=0.0638x    frame=   84 fps=3.2 q=-0.0 size=     639kB time=00:00:01.66 bitrate=3150.0kbits/s speed=0.0637x    frame=   87 fps=3.2 q=-0.0 size=     710kB time=00:00:01.72 bitrate=3380.9kbits/s speed=0.0641x    frame=   89 fps=3.2 q=-0.0 size=     710kB time=00:00:01.76 bitrate=3304.1kbits/s speed=0.0641x    frame=   91 fps=3.2 q=-0.0 size=     710kB time=00:00:01.80 bitrate=3230.7kbits/s speed=0.0641x    frame=   93 fps=3.2 q=-0.0 size=     710kB time=00:00:01.84 bitrate=3160.5kbits/s speed=0.064x    frame=   95 fps=3.2 q=-0.0 size=     710kB time=00:00:01.88 bitrate=3093.3kbits/s speed=0.064x    frame=   97 fps=3.2 q=-0.0 size=     781kB time=00:00:01.92 bitrate=3332.3kbits/s speed=0.0639x    frame=  100 fps=3.2 q=-0.0 size=     781kB time=00:00:01.98 bitrate=3231.4kbits/s speed=0.0642x    frame=  102 fps=3.2 q=-0.0 size=     781kB time=00:00:02.02 bitrate=3167.4kbits/s speed=0.0642x    frame=  104 fps=3.2 q=-0.0 size=     781kB time=00:00:02.06 bitrate=3105.9kbits/s speed=0.0641x    frame=  106 fps=3.2 q=-0.0 size=     781kB time=00:00:02.10 bitrate=3046.8kbits/s speed=0.0641x    frame=  108 fps=3.2 q=-0.0 size=     781kB time=00:00:02.14 bitrate=2989.9kbits/s speed=0.064x    frame=  111 fps=3.2 q=-0.0 size=     853kB time=00:00:02.20 bitrate=3173.9kbits/s speed=0.0643x    frame=  113 fps=3.2 q=-0.0 size=     853kB time=00:00:02.24 bitrate=3117.3kbits/s speed=0.0643x    frame=  115 fps=3.2 q=-0.0 size=     853kB time=00:00:02.28 bitrate=3062.6kbits/s speed=0.0643x    frame=  117 fps=3.2 q=-0.0 size=     853kB time=00:00:02.32 bitrate=3009.8kbits/s speed=0.0642x    frame=  119 fps=3.2 q=-0.0 size=     853kB time=00:00:02.36 bitrate=2958.8kbits/s speed=0.0642x    frame=  121 fps=3.2 q=-0.0 size=     925kB time=00:00:02.40 bitrate=3155.0kbits/s speed=0.0642x    frame=  124 fps=3.2 q=-0.0 size=     925kB time=00:00:02.46 bitrate=3078.1kbits/s speed=0.0644x    frame=  126 fps=3.2 q=-0.0 size=     925kB time=00:00:02.50 bitrate=3028.9kbits/s speed=0.0644x    frame=  128 fps=3.2 q=-0.0 size=     925kB time=00:00:02.54 bitrate=2981.2kbits/s speed=0.0644x    frame=  130 fps=3.2 q=-0.0 size=     925kB time=00:00:02.58 bitrate=2935.0kbits/s speed=0.0643x    frame=  132 fps=3.2 q=-0.0 size=     925kB time=00:00:02.62 bitrate=2890.2kbits/s speed=0.0643x    frame=  135 fps=3.2 q=-0.0 size=     996kB time=00:00:02.68 bitrate=3044.5kbits/s speed=0.0645x    frame=  137 fps=3.2 q=-0.0 size=     996kB time=00:00:02.72 bitrate=2999.7kbits/s speed=0.0645x    frame=  139 fps=3.2 q=-0.0 size=     996kB time=00:00:02.76 bitrate=2956.3kbits/s speed=0.0645x    frame=  141 fps=3.2 q=-0.0 size=     996kB time=00:00:02.80 bitrate=2914.1kbits/s speed=0.0644x    frame=  143 fps=3.2 q=-0.0 size=     996kB time=00:00:02.84 bitrate=2873.0kbits/s speed=0.0644x    frame=  145 fps=3.2 q=-0.0 size=    1068kB time=00:00:02.88 bitrate=3037.4kbits/s speed=0.0644x    frame=  148 fps=3.2 q=-0.0 size=    1068kB time=00:00:02.94 bitrate=2975.4kbits/s speed=0.0646x    frame=  150 fps=3.2 q=-0.0 size=    1068kB time=00:00:02.98 bitrate=2935.5kbits/s speed=0.0645x    frame=  152 fps=3.2 q=-0.0 size=    1068kB time=00:00:03.02 bitrate=2896.7kbits/s speed=0.0645x    frame=  154 fps=3.2 q=-0.0 size=    1068kB time=00:00:03.06 bitrate=2858.8kbits/s speed=0.0645x    frame=  156 fps=3.2 q=-0.0 size=    1068kB time=00:00:03.10 bitrate=2821.9kbits/s speed=0.0644x    frame=  159 fps=3.3 q=-0.0 size=    1140kB time=00:00:03.16 bitrate=2953.3kbits/s speed=0.0646x    frame=  161 fps=3.2 q=-0.0 size=    1140kB time=00:00:03.20 bitrate=2916.4kbits/s speed=0.0646x    frame=  163 fps=3.2 q=-0.0 size=    1140kB time=00:00:03.24 bitrate=2880.4kbits/s speed=0.0646x    frame=  165 fps=3.2 q=-0.0 size=    1140kB time=00:00:03.28 bitrate=2845.3kbits/s speed=0.0646x    frame=  167 fps=3.2 q=-0.0 size=    1140kB time=00:00:03.32 bitrate=2811.0kbits/s speed=0.0645x    frame=  169 fps=3.2 q=-0.0 size=    1211kB time=00:00:03.36 bitrate=2951.5kbits/s speed=0.0645x    frame=  172 fps=3.3 q=-0.0 size=    1211kB time=00:00:03.42 bitrate=2899.7kbits/s speed=0.0647x    frame=  174 fps=3.3 q=-0.0 size=    1211kB time=00:00:03.46 bitrate=2866.2kbits/s speed=0.0647x    frame=  176 fps=3.2 q=-0.0 size=    1211kB time=00:00:03.50 bitrate=2833.5kbits/s speed=0.0646x    frame=  178 fps=3.2 q=-0.0 size=    1211kB time=00:00:03.54 bitrate=2801.4kbits/s speed=0.0646x    frame=  180 fps=3.2 q=-0.0 size=    1211kB time=00:00:03.58 bitrate=2770.2kbits/s speed=0.0646x    frame=  183 fps=3.3 q=-0.0 size=    1283kB time=00:00:03.64 bitrate=2885.6kbits/s speed=0.0647x    frame=  185 fps=3.3 q=-0.0 size=    1283kB time=00:00:03.68 bitrate=2854.2kbits/s speed=0.0647x    frame=  187 fps=3.3 q=-0.0 size=    1283kB time=00:00:03.72 bitrate=2823.6kbits/s speed=0.0647x    frame=  189 fps=3.3 q=-0.0 size=    1283kB time=00:00:03.76 bitrate=2793.5kbits/s speed=0.0647x    frame=  191 fps=3.2 q=-0.0 size=    1283kB time=00:00:03.80 bitrate=2764.1kbits/s speed=0.0647x    frame=  193 fps=3.2 q=-0.0 size=    1354kB time=00:00:03.84 bitrate=2887.1kbits/s speed=0.0646x    frame=  196 fps=3.3 q=-0.0 size=    1354kB time=00:00:03.90 bitrate=2842.6kbits/s speed=0.0648x    frame=  198 fps=3.3 q=-0.0 size=    1354kB time=00:00:03.94 bitrate=2813.8kbits/s speed=0.0648x    frame=  200 fps=3.3 q=-0.0 size=    1354kB time=00:00:03.98 bitrate=2785.5kbits/s speed=0.0647x    frame=  202 fps=3.3 q=-0.0 size=    1354kB time=00:00:04.02 bitrate=2757.8kbits/s speed=0.0647x    frame=  204 fps=3.2 q=-0.0 size=    1354kB time=00:00:04.06 bitrate=2730.6kbits/s speed=0.0647x    frame=  207 fps=3.3 q=-0.0 size=    1426kB time=00:00:04.12 bitrate=2834.0kbits/s speed=0.0648x    frame=  209 fps=3.3 q=-0.0 size=    1426kB time=00:00:04.16 bitrate=2806.8kbits/s speed=0.0648x    frame=  211 fps=3.3 q=-0.0 size=    1426kB time=00:00:04.20 bitrate=2780.0kbits/s speed=0.0648x    frame=  213 fps=3.3 q=-0.0 size=    1426kB time=00:00:04.24 bitrate=2753.8kbits/s speed=0.0648x    frame=  215 fps=3.3 q=-0.0 size=    1426kB time=00:00:04.28 bitrate=2728.1kbits/s speed=0.0647x    frame=  217 fps=3.2 q=-0.0 size=    1497kB time=00:00:04.32 bitrate=2839.0kbits/s speed=0.0647x    frame=  220 fps=3.3 q=-0.0 size=    1497kB time=00:00:04.38 bitrate=2800.1kbits/s speed=0.0648x    frame=  222 fps=3.3 q=-0.0 size=    1497kB time=00:00:04.42 bitrate=2774.8kbits/s speed=0.0648x    frame=  224 fps=3.3 q=-0.0 size=    1497kB time=00:00:04.46 bitrate=2749.9kbits/s speed=0.0647x    frame=  226 fps=3.2 q=-0.0 size=    1497kB time=00:00:04.50 bitrate=2725.4kbits/s speed=0.0647x    frame=  228 fps=3.2 q=-0.0 size=    1497kB time=00:00:04.54 bitrate=2701.4kbits/s speed=0.0646x    frame=  230 fps=3.2 q=-0.0 size=    1569kB time=00:00:04.58 bitrate=2805.7kbits/s speed=0.0647x    frame=  232 fps=3.2 q=-0.0 size=    1569kB time=00:00:04.62 bitrate=2781.4kbits/s speed=0.0647x    frame=  234 fps=3.2 q=-0.0 size=    1569kB time=00:00:04.66 bitrate=2757.6kbits/s speed=0.0647x    frame=  236 fps=3.2 q=-0.0 size=    1569kB time=00:00:04.70 bitrate=2734.1kbits/s speed=0.0646x    frame=  238 fps=3.2 q=-0.0 size=    1569kB time=00:00:04.74 bitrate=2711.0kbits/s speed=0.0646x    frame=  240 fps=3.2 q=-0.0 size=    1569kB time=00:00:04.78 bitrate=2688.3kbits/s speed=0.0646x    frame=  242 fps=3.2 q=-0.0 size=    1641kB time=00:00:04.82 bitrate=2787.8kbits/s speed=0.0647x    frame=  244 fps=3.2 q=-0.0 size=    1641kB time=00:00:04.86 bitrate=2764.8kbits/s speed=0.0647x    frame=  246 fps=3.2 q=-0.0 size=    1641kB time=00:00:04.90 bitrate=2742.3kbits/s speed=0.0647x    frame=  248 fps=3.2 q=-0.0 size=    1641kB time=00:00:04.94 bitrate=2720.1kbits/s speed=0.0646x    frame=  250 fps=3.2 q=-0.0 size=    1641kB time=00:00:04.98 bitrate=2698.2kbits/s speed=0.0646x    frame=  252 fps=3.2 q=-0.0 size=    1641kB time=00:00:05.02 bitrate=2676.7kbits/s speed=0.0646x    frame=  255 fps=3.2 q=-0.0 size=    1714kB time=00:00:05.08 bitrate=2762.9kbits/s speed=0.0647x    frame=  257 fps=3.2 q=-0.0 size=    1714kB time=00:00:05.12 bitrate=2741.4kbits/s speed=0.0647x    frame=  259 fps=3.2 q=-0.0 size=    1714kB time=00:00:05.16 bitrate=2720.1kbits/s speed=0.0647x    frame=  261 fps=3.2 q=-0.0 size=    1714kB time=00:00:05.20 bitrate=2699.2kbits/s speed=0.0646x    frame=  263 fps=3.2 q=-0.0 size=    1714kB time=00:00:05.24 bitrate=2678.6kbits/s speed=0.0646x    frame=  265 fps=3.2 q=-0.0 size=    1787kB time=00:00:05.28 bitrate=2772.0kbits/s speed=0.0646x    frame=  268 fps=3.2 q=-0.0 size=    1787kB time=00:00:05.34 bitrate=2740.9kbits/s speed=0.0647x    frame=  270 fps=3.2 q=-0.0 size=    1787kB time=00:00:05.38 bitrate=2720.5kbits/s speed=0.0647x    frame=  272 fps=3.2 q=-0.0 size=    1787kB time=00:00:05.42 bitrate=2700.4kbits/s speed=0.0647x    frame=  274 fps=3.2 q=-0.0 size=    1787kB time=00:00:05.46 bitrate=2680.6kbits/s speed=0.0646x    frame=  276 fps=3.2 q=-0.0 size=    1787kB time=00:00:05.50 bitrate=2661.1kbits/s speed=0.0646x    frame=  278 fps=3.2 q=-0.0 size=    1860kB time=00:00:05.54 bitrate=2749.2kbits/s speed=0.0647x    frame=  280 fps=3.2 q=-0.0 size=    1860kB time=00:00:05.58 bitrate=2729.5kbits/s speed=0.0647x    frame=  282 fps=3.2 q=-0.0 size=    1860kB time=00:00:05.62 bitrate=2710.0kbits/s speed=0.0647x    frame=  284 fps=3.2 q=-0.0 size=    1860kB time=00:00:05.66 bitrate=2690.9kbits/s speed=0.0646x    frame=  286 fps=3.2 q=-0.0 size=    1860kB time=00:00:05.70 bitrate=2672.0kbits/s speed=0.0646x    frame=  288 fps=3.2 q=-0.0 size=    1860kB time=00:00:05.74 bitrate=2653.4kbits/s speed=0.0646x    frame=  290 fps=3.2 q=-0.0 size=    1932kB time=00:00:05.78 bitrate=2737.7kbits/s speed=0.0647x    frame=  292 fps=3.2 q=-0.0 size=    1932kB time=00:00:05.82 bitrate=2718.9kbits/s speed=0.0647x    frame=  293 fps=3.2 q=-0.0 size=    1932kB time=00:00:05.84 bitrate=2709.6kbits/s speed=0.0645x    frame=  295 fps=3.2 q=-0.0 size=    1932kB time=00:00:05.88 bitrate=2691.2kbits/s speed=0.0645x    frame=  297 fps=3.2 q=-0.0 size=    1932kB time=00:00:05.92 bitrate=2673.0kbits/s speed=0.0645x    frame=  299 fps=3.2 q=-0.0 size=    1932kB time=00:00:05.96 bitrate=2655.1kbits/s speed=0.0645x    frame=  301 fps=3.2 q=-0.0 size=    2004kB time=00:00:06.00 bitrate=2735.1kbits/s speed=0.0644x    frame=  304 fps=3.2 q=-0.0 size=    2004kB time=00:00:06.06 bitrate=2708.1kbits/s speed=0.0645x    frame=  306 fps=3.2 q=-0.0 size=    2004kB time=00:00:06.10 bitrate=2690.3kbits/s speed=0.0645x    frame=  308 fps=3.2 q=-0.0 size=    2004kB time=00:00:06.14 bitrate=2672.8kbits/s speed=0.0645x    frame=  310 fps=3.2 q=-0.0 size=    2004kB time=00:00:06.18 bitrate=2655.5kbits/s speed=0.0645x    frame=  312 fps=3.2 q=-0.0 size=    2004kB time=00:00:06.22 bitrate=2638.4kbits/s speed=0.0645x    frame=  315 fps=3.2 q=-0.0 size=    2074kB time=00:00:06.28 bitrate=2705.6kbits/s speed=0.0645x    frame=  317 fps=3.2 q=-0.0 size=    2074kB time=00:00:06.32 bitrate=2688.5kbits/s speed=0.0645x    frame=  319 fps=3.2 q=-0.0 size=    2074kB time=00:00:06.36 bitrate=2671.6kbits/s speed=0.0645x    frame=  321 fps=3.2 q=-0.0 size=    2074kB time=00:00:06.40 bitrate=2654.9kbits/s speed=0.0645x    frame=  323 fps=3.2 q=-0.0 size=    2074kB time=00:00:06.44 bitrate=2638.4kbits/s speed=0.0645x    frame=  325 fps=3.2 q=-0.0 size=    2146kB time=00:00:06.48 bitrate=2712.3kbits/s speed=0.0644x    frame=  328 fps=3.2 q=-0.0 size=    2146kB time=00:00:06.54 bitrate=2687.5kbits/s speed=0.0645x    frame=  330 fps=3.2 q=-0.0 size=    2146kB time=00:00:06.58 bitrate=2671.1kbits/s speed=0.0645x    frame=  332 fps=3.2 q=-0.0 size=    2146kB time=00:00:06.62 bitrate=2655.0kbits/s speed=0.0645x    frame=  334 fps=3.2 q=-0.0 size=    2146kB time=00:00:06.66 bitrate=2639.0kbits/s speed=0.0642x    frame=  336 fps=3.2 q=-0.0 size=    2146kB time=00:00:06.70 bitrate=2623.3kbits/s speed=0.0642x    frame=  338 fps=3.2 q=-0.0 size=    2217kB time=00:00:06.74 bitrate=2694.6kbits/s speed=0.0643x    frame=  340 fps=3.2 q=-0.0 size=    2217kB time=00:00:06.78 bitrate=2678.7kbits/s speed=0.0643x    frame=  342 fps=3.2 q=-0.0 size=    2217kB time=00:00:06.82 bitrate=2663.0kbits/s speed=0.0643x    frame=  344 fps=3.2 q=-0.0 size=    2217kB time=00:00:06.86 bitrate=2647.4kbits/s speed=0.0642x    frame=  346 fps=3.2 q=-0.0 size=    2217kB time=00:00:06.90 bitrate=2632.1kbits/s speed=0.0642x    frame=  348 fps=3.2 q=-0.0 size=    2217kB time=00:00:06.94 bitrate=2616.9kbits/s speed=0.0641x    frame=  351 fps=3.2 q=-0.0 size=    2290kB time=00:00:07.00 bitrate=2679.1kbits/s speed=0.064x    frame=  353 fps=3.2 q=-0.0 size=    2290kB time=00:00:07.04 bitrate=2663.9kbits/s speed=0.064x    frame=  355 fps=3.2 q=-0.0 size=    2290kB time=00:00:07.08 bitrate=2648.9kbits/s speed=0.064x    frame=  357 fps=3.2 q=-0.0 size=    2290kB time=00:00:07.12 bitrate=2634.0kbits/s speed=0.064x    frame=  359 fps=3.2 q=-0.0 size=    2290kB time=00:00:07.16 bitrate=2619.3kbits/s speed=0.064x    frame=  360 fps=3.2 q=-0.0 size=    2290kB time=00:00:07.18 bitrate=2612.0kbits/s speed=0.0637x    frame=  361 fps=3.2 q=-0.0 size=    2361kB time=00:00:07.20 bitrate=2685.7kbits/s speed=0.0635x    frame=  363 fps=3.2 q=-0.0 size=    2361kB time=00:00:07.24 bitrate=2670.9kbits/s speed=0.0636x    frame=  364 fps=3.2 q=-0.0 size=    2361kB time=00:00:07.26 bitrate=2663.5kbits/s speed=0.0634x    frame=  365 fps=3.2 q=-0.0 size=    2361kB time=00:00:07.28 bitrate=2656.2kbits/s speed=0.0632x    frame=  367 fps=3.2 q=-0.0 size=    2361kB time=00:00:07.32 bitrate=2641.7kbits/s speed=0.0631x    frame=  369 fps=3.2 q=-0.0 size=    2361kB time=00:00:07.36 bitrate=2627.3kbits/s speed=0.0631x    frame=  370 fps=3.2 q=-0.0 size=    2361kB time=00:00:07.38 bitrate=2620.2kbits/s speed=0.0629x    frame=  372 fps=3.1 q=-0.0 size=    2361kB time=00:00:07.42 bitrate=2606.1kbits/s speed=0.0627x    frame=  374 fps=3.1 q=-0.0 size=    2434kB time=00:00:07.46 bitrate=2672.0kbits/s speed=0.0628x    frame=  375 fps=3.1 q=-0.0 size=    2434kB time=00:00:07.48 bitrate=2664.9kbits/s speed=0.0626x    frame=  377 fps=3.1 q=-0.0 size=    2434kB time=00:00:07.52 bitrate=2650.7kbits/s speed=0.0626x    frame=  379 fps=3.1 q=-0.0 size=    2434kB time=00:00:07.56 bitrate=2636.7kbits/s speed=0.0625x    frame=  381 fps=3.1 q=-0.0 size=    2434kB time=00:00:07.60 bitrate=2622.8kbits/s speed=0.0625x    frame=  383 fps=3.1 q=-0.0 size=    2434kB time=00:00:07.64 bitrate=2609.1kbits/s speed=0.0625x    frame=  385 fps=3.1 q=-0.0 size=    2507kB time=00:00:07.68 bitrate=2674.2kbits/s speed=0.0625x    frame=  387 fps=3.1 q=-0.0 size=    2507kB time=00:00:07.72 bitrate=2660.3kbits/s speed=0.0625x    frame=  389 fps=3.1 q=-0.0 size=    2507kB time=00:00:07.76 bitrate=2646.6kbits/s speed=0.0625x    frame=  391 fps=3.1 q=-0.0 size=    2507kB time=00:00:07.80 bitrate=2633.1kbits/s speed=0.0625x    frame=  393 fps=3.1 q=-0.0 size=    2507kB time=00:00:07.84 bitrate=2619.6kbits/s speed=0.0625x    frame=  395 fps=3.1 q=-0.0 size=    2507kB time=00:00:07.88 bitrate=2606.3kbits/s speed=0.0625x    frame=  397 fps=3.1 q=-0.0 size=    2581kB time=00:00:07.92 bitrate=2669.6kbits/s speed=0.0625x    frame=  400 fps=3.1 q=-0.0 size=    2581kB time=00:00:07.98 bitrate=2649.5kbits/s speed=0.0626x    frame=  402 fps=3.1 q=-0.0 size=    2581kB time=00:00:08.02 bitrate=2636.3kbits/s speed=0.0626x    frame=  404 fps=3.1 q=-0.0 size=    2581kB time=00:00:08.06 bitrate=2623.2kbits/s speed=0.0626x    frame=  406 fps=3.1 q=-0.0 size=    2581kB time=00:00:08.10 bitrate=2610.3kbits/s speed=0.0626x    frame=  408 fps=3.1 q=-0.0 size=    2581kB time=00:00:08.14 bitrate=2597.4kbits/s speed=0.0626x    frame=  410 fps=3.1 q=-0.0 size=    2656kB time=00:00:08.18 bitrate=2659.2kbits/s speed=0.0626x    frame=  412 fps=3.1 q=-0.0 size=    2656kB time=00:00:08.22 bitrate=2646.3kbits/s speed=0.0626x    frame=  414 fps=3.1 q=-0.0 size=    2656kB time=00:00:08.26 bitrate=2633.4kbits/s speed=0.0626x    frame=  416 fps=3.1 q=-0.0 size=    2656kB time=00:00:08.30 bitrate=2620.8kbits/s speed=0.0626x    frame=  418 fps=3.1 q=-0.0 size=    2656kB time=00:00:08.34 bitrate=2608.2kbits/s speed=0.0626x    frame=  420 fps=3.1 q=-0.0 size=    2656kB time=00:00:08.38 bitrate=2595.7kbits/s speed=0.0626x    frame=  422 fps=3.1 q=-0.0 size=    2730kB time=00:00:08.42 bitrate=2656.1kbits/s speed=0.0627x    frame=  424 fps=3.1 q=-0.0 size=    2730kB time=00:00:08.46 bitrate=2643.5kbits/s speed=0.0627x    frame=  425 fps=3.1 q=-0.0 size=    2730kB time=00:00:08.48 bitrate=2637.3kbits/s speed=0.0625x    frame=  427 fps=3.1 q=-0.0 size=    2730kB time=00:00:08.52 bitrate=2624.9kbits/s speed=0.0625x    frame=  429 fps=3.1 q=-0.0 size=    2730kB time=00:00:08.56 bitrate=2612.6kbits/s speed=0.0625x    frame=  431 fps=3.1 q=-0.0 size=    2730kB time=00:00:08.60 bitrate=2600.5kbits/s speed=0.0625x    frame=  433 fps=3.1 q=-0.0 size=    2805kB time=00:00:08.64 bitrate=2659.4kbits/s speed=0.0625x    frame=  436 fps=3.1 q=-0.0 size=    2805kB time=00:00:08.70 bitrate=2641.0kbits/s speed=0.0626x    frame=  438 fps=3.1 q=-0.0 size=    2805kB time=00:00:08.74 bitrate=2629.0kbits/s speed=0.0626x    frame=  440 fps=3.1 q=-0.0 size=    2805kB time=00:00:08.78 bitrate=2617.0kbits/s speed=0.0626x    frame=  442 fps=3.1 q=-0.0 size=    2805kB time=00:00:08.82 bitrate=2605.1kbits/s speed=0.0626x    frame=  444 fps=3.1 q=-0.0 size=    2805kB time=00:00:08.86 bitrate=2593.4kbits/s speed=0.0626x    frame=  446 fps=3.1 q=-0.0 size=    2879kB time=00:00:08.90 bitrate=2649.3kbits/s speed=0.0626x    frame=  448 fps=3.1 q=-0.0 size=    2879kB time=00:00:08.94 bitrate=2637.5kbits/s speed=0.0626x    frame=  450 fps=3.1 q=-0.0 size=    2879kB time=00:00:08.98 bitrate=2625.7kbits/s speed=0.0626x    frame=  452 fps=3.1 q=-0.0 size=    2879kB time=00:00:09.02 bitrate=2614.1kbits/s speed=0.0626x    frame=  454 fps=3.1 q=-0.0 size=    2879kB time=00:00:09.06 bitrate=2602.6kbits/s speed=0.0626x    frame=  456 fps=3.1 q=-0.0 size=    2879kB time=00:00:09.10 bitrate=2591.1kbits/s speed=0.0626x    frame=  458 fps=3.1 q=-0.0 size=    2953kB time=00:00:09.14 bitrate=2646.0kbits/s speed=0.0627x    frame=  460 fps=3.1 q=-0.0 size=    2953kB time=00:00:09.18 bitrate=2634.5kbits/s speed=0.0627x    frame=  462 fps=3.1 q=-0.0 size=    2953kB time=00:00:09.22 bitrate=2623.1kbits/s speed=0.0627x    frame=  464 fps=3.1 q=-0.0 size=    2953kB time=00:00:09.26 bitrate=2611.7kbits/s speed=0.0627x    frame=  466 fps=3.1 q=-0.0 size=    2953kB time=00:00:09.30 bitrate=2600.5kbits/s speed=0.0626x    frame=  468 fps=3.1 q=-0.0 size=    2953kB time=00:00:09.34 bitrate=2589.4kbits/s speed=0.0626x    frame=  470 fps=3.1 q=-0.0 size=    3027kB time=00:00:09.38 bitrate=2643.7kbits/s speed=0.0627x    frame=  472 fps=3.1 q=-0.0 size=    3027kB time=00:00:09.42 bitrate=2632.4kbits/s speed=0.0627x    frame=  474 fps=3.1 q=-0.0 size=    3027kB time=00:00:09.46 bitrate=2621.3kbits/s speed=0.0627x    frame=  476 fps=3.1 q=-0.0 size=    3027kB time=00:00:09.50 bitrate=2610.3kbits/s speed=0.0627x    frame=  478 fps=3.1 q=-0.0 size=    3027kB time=00:00:09.54 bitrate=2599.3kbits/s speed=0.0627x    frame=  480 fps=3.1 q=-0.0 size=    3027kB time=00:00:09.58 bitrate=2588.5kbits/s speed=0.0627x    frame=  482 fps=3.1 q=-0.0 size=    3101kB time=00:00:09.62 bitrate=2640.8kbits/s speed=0.0627x    frame=  484 fps=3.1 q=-0.0 size=    3101kB time=00:00:09.66 bitrate=2629.9kbits/s speed=0.0627x    frame=  486 fps=3.1 q=-0.0 size=    3101kB time=00:00:09.70 bitrate=2619.0kbits/s speed=0.0627x    frame=  488 fps=3.1 q=-0.0 size=    3101kB time=00:00:09.74 bitrate=2608.3kbits/s speed=0.0627x    frame=  490 fps=3.1 q=-0.0 size=    3101kB time=00:00:09.78 bitrate=2597.6kbits/s speed=0.0627x    frame=  492 fps=3.1 q=-0.0 size=    3101kB time=00:00:09.82 bitrate=2587.0kbits/s speed=0.0625x    frame=  494 fps=3.1 q=-0.0 size=    3176kB time=00:00:09.86 bitrate=2638.1kbits/s speed=0.0624x    frame=  496 fps=3.1 q=-0.0 size=    3176kB time=00:00:09.90 bitrate=2627.5kbits/s speed=0.0624x    frame=  498 fps=3.1 q=-0.0 size=    3176kB time=00:00:09.94 bitrate=2616.9kbits/s speed=0.0624x    frame=  500 fps=3.1 q=-0.0 size=    3176kB time=00:00:09.98 bitrate=2606.4kbits/s speed=0.0624x    frame=  500 fps=3.1 q=-0.0 Lsize=    3248kB time=00:00:09.98 bitrate=2666.0kbits/s speed=0.0623x    
video:3240kB audio:0kB subtitle:0kB other streams:0kB global headers:3kB muxing overhead: 0.265908%
bench: utime=142.260s
bench: maxrss=160112kB
